<?xml version="1.0" encoding="utf-8"?>
<!-- Generator: Adobe Illustrator 24.1.2, SVG Export Plug-In . SVG Version: 6.00 Build 0)  -->
<svg version="1.1" id="Layer_1" xmlns="http://www.w3.org/2000/svg" xmlns:xlink="http://www.w3.org/1999/xlink" x="0px" y="0px"
	 viewBox="0 0 398.9 237.1" style="enable-background:new 0 0 398.9 237.1;" xml:space="preserve">
<style type="text/css">
	.st0{fill:url(#SVGID_1_);}
	.st1{fill:#FFFFFF;}
</style>
<g id="BAckground">
</g>
<g>
	
		<linearGradient id="SVGID_1_" gradientUnits="userSpaceOnUse" x1="199.25" y1="34" x2="199.25" y2="-172.8135" gradientTransform="matrix(1 0 0 1 0 204)">
		<stop  offset="0" style="stop-color:#0071BB"/>
		<stop  offset="8.210000e-02" style="stop-color:#0E85C8"/>
		<stop  offset="0.1859" style="stop-color:#1A96D3"/>
		<stop  offset="0.3152" style="stop-color:#23A1DB"/>
		<stop  offset="0.4965" style="stop-color:#28A8E0"/>
		<stop  offset="1" style="stop-color:#29AAE1"/>
	</linearGradient>
	<polygon class="st0" points="0,238 398.5,238 398.5,0 340.8,83.2 284.3,49 247.2,130.1 224.3,57 184.8,106.4 131.3,103.8 92.4,168 
		47.7,104.3 19.4,171.7 0,164.9 	"/>
	<polygon class="st1" points="362,12.6 333.9,26.9 341.2,30.8 291.3,106.9 244.7,77.1 219.6,137.1 187.3,114 132.2,162.2 
		92.5,123.1 55.5,151.1 18.8,96.8 0,105.2 0,120.7 13,114.8 51.6,172.1 91.1,142.3 131.5,182.1 188.3,132.4 226.6,159.8 252.1,98.8 
		296.1,126.9 354.5,37.7 361.8,41.5 	"/>
</g>
</svg>
