<?xml version="1.0" encoding="utf-8"?>
<!-- Generator: Adobe Illustrator 24.1.2, SVG Export Plug-In . SVG Version: 6.00 Build 0)  -->
<svg version="1.1" xmlns="http://www.w3.org/2000/svg" xmlns:xlink="http://www.w3.org/1999/xlink" x="0px" y="0px"
	 viewBox="0 0 802.92 237.12" style="enable-background:new 0 0 802.92 237.12;" xml:space="preserve">
<style type="text/css">
	.st0{fill:url(#SVGID_1_);}
	.st1{fill:#333333;}
</style>
<g id="BAckground">
</g>
<g id="Objects">
	<g>
		<linearGradient id="SVGID_1_" gradientUnits="userSpaceOnUse" x1="199.2473" y1="237.9776" x2="199.2473" y2="31.1641">
			<stop  offset="0" style="stop-color:#0071BB"/>
			<stop  offset="0.0821" style="stop-color:#0E85C8"/>
			<stop  offset="0.1859" style="stop-color:#1A96D3"/>
			<stop  offset="0.3152" style="stop-color:#23A1DB"/>
			<stop  offset="0.4965" style="stop-color:#28A8E0"/>
			<stop  offset="1" style="stop-color:#29AAE1"/>
		</linearGradient>
		<polygon class="st0" points="0,237.98 398.49,237.98 398.49,0 340.81,83.19 284.3,48.96 247.22,130.05 224.26,56.96 
			184.83,106.45 131.26,103.79 92.41,168.02 47.68,104.32 19.42,171.71 0,164.86 		"/>
		<polygon class="st1" points="362,12.64 333.91,26.93 341.19,30.75 291.33,106.87 244.69,77.08 219.59,137.13 187.25,113.99 
			132.18,162.21 92.53,123.1 55.49,151.13 18.82,96.8 0,105.22 0,120.65 12.97,114.85 51.64,172.14 91.12,142.26 131.52,182.11 
			188.29,132.41 226.58,159.82 252.1,98.77 296.11,126.89 354.51,37.73 361.8,41.54 		"/>
	</g>
	<g>
		<path class="st1" d="M444.79,92.59c2.54,0,4.51-0.69,5.91-2.07c1.4-1.38,2.08-3.3,2.04-5.77h16.97c0,6.37-2.28,11.6-6.85,15.68
			s-10.45,6.12-17.64,6.12c-8.45,0-15.11-2.65-19.98-7.95c-4.87-5.3-7.3-12.64-7.3-22.02v-0.75c0-5.87,1.08-11.06,3.25-15.55
			c2.17-4.49,5.29-7.95,9.37-10.37c4.08-2.42,8.92-3.63,14.5-3.63c7.55,0,13.55,2.09,17.99,6.28c4.44,4.19,6.66,9.87,6.66,17.03
			h-16.97c0-3.01-0.73-5.32-2.2-6.93c-1.47-1.61-3.44-2.42-5.91-2.42c-4.69,0-7.43,2.99-8.22,8.97c-0.25,1.9-0.38,4.51-0.38,7.84
			c0,5.84,0.7,9.88,2.09,12.14S441.75,92.59,444.79,92.59z"/>
		<path class="st1" d="M510.1,105.48c-0.64-1.18-1.22-2.92-1.72-5.21c-3.33,4.19-7.99,6.28-13.96,6.28
			c-5.48,0-10.13-1.66-13.96-4.97c-3.83-3.31-5.75-7.47-5.75-12.49c0-6.3,2.33-11.06,6.98-14.29c4.65-3.22,11.42-4.83,20.3-4.83
			h5.59V66.9c0-5.36-2.31-8.04-6.93-8.04c-4.3,0-6.45,2.12-6.45,6.37h-18.1c0-5.61,2.39-10.17,7.17-13.68s10.88-5.26,18.29-5.26
			s13.27,1.81,17.56,5.42c4.3,3.62,6.5,8.58,6.61,14.88v25.73c0.07,5.34,0.89,9.42,2.47,12.25v0.91H510.1z M498.77,93.66
			c2.26,0,4.13-0.48,5.61-1.45c1.49-0.97,2.55-2.06,3.2-3.28v-9.29h-5.26c-6.3,0-9.45,2.83-9.45,8.49c0,1.65,0.55,2.98,1.67,4
			C495.64,93.15,497.05,93.66,498.77,93.66z"/>
		<path class="st1" d="M589.7,76.85c0,9.02-2.03,16.23-6.1,21.62c-4.06,5.39-9.55,8.08-16.46,8.08c-5.34,0-9.72-1.95-13.16-5.85
			v27.12h-18.1V47.36h16.92l0.54,5.37c3.47-4.3,8.04-6.45,13.7-6.45c7.16,0,12.73,2.64,16.7,7.92c3.97,5.28,5.96,12.54,5.96,21.78
			V76.85z M571.6,75.72c0-10.31-3.01-15.47-9.02-15.47c-4.3,0-7.16,1.54-8.59,4.62v22.88c1.58,3.22,4.48,4.83,8.7,4.83
			c5.76,0,8.74-4.98,8.92-14.93V75.72z"/>
		<path class="st1" d="M597.54,32.38c0-2.58,0.93-4.69,2.79-6.34c1.86-1.65,4.28-2.47,7.25-2.47s5.39,0.82,7.25,2.47
			c1.86,1.65,2.79,3.76,2.79,6.34s-0.93,4.69-2.79,6.34c-1.86,1.65-4.28,2.47-7.25,2.47s-5.39-0.82-7.25-2.47
			C598.47,37.07,597.54,34.96,597.54,32.38z M616.77,105.48h-18.15V47.36h18.15V105.48z"/>
		<path class="st1" d="M649,32.91v14.45h9.56v12.57H649v26.59c0,2.18,0.39,3.71,1.18,4.57c0.79,0.86,2.34,1.29,4.67,1.29
			c1.79,0,3.29-0.11,4.51-0.32v12.94c-3.26,1.04-6.66,1.56-10.21,1.56c-6.23,0-10.83-1.47-13.8-4.4c-2.97-2.94-4.46-7.39-4.46-13.37
			V59.93h-7.41V47.36h7.41V32.91H649z"/>
		<path class="st1" d="M698.41,105.48c-0.64-1.18-1.22-2.92-1.72-5.21c-3.33,4.19-7.99,6.28-13.96,6.28
			c-5.48,0-10.13-1.66-13.96-4.97c-3.83-3.31-5.75-7.47-5.75-12.49c0-6.3,2.33-11.06,6.98-14.29c4.65-3.22,11.42-4.83,20.3-4.83
			h5.59V66.9c0-5.36-2.31-8.04-6.93-8.04c-4.3,0-6.45,2.12-6.45,6.37h-18.1c0-5.61,2.39-10.17,7.17-13.68
			c4.78-3.5,10.88-5.26,18.29-5.26s13.27,1.81,17.56,5.42c4.3,3.62,6.5,8.58,6.61,14.88v25.73c0.07,5.34,0.89,9.42,2.47,12.25v0.91
			H698.41z M687.08,93.66c2.26,0,4.13-0.48,5.61-1.45c1.49-0.97,2.55-2.06,3.2-3.28v-9.29h-5.26c-6.3,0-9.45,2.83-9.45,8.49
			c0,1.65,0.55,2.98,1.67,4C683.94,93.15,685.36,93.66,687.08,93.66z"/>
		<path class="st1" d="M743.15,105.48H725v-82.5h18.15V105.48z"/>
		<path class="st1" d="M437.32,147.36l0.59,6.82c4.12-5.26,9.65-7.9,16.6-7.9c7.34,0,12.3,2.92,14.88,8.75
			c3.94-5.84,9.63-8.75,17.08-8.75c11.78,0,17.83,7.13,18.15,21.38v37.81h-18.15v-36.68c0-2.97-0.5-5.14-1.5-6.5
			c-1-1.36-2.83-2.04-5.48-2.04c-3.58,0-6.25,1.59-8,4.78l0.05,0.75v39.69h-18.15V168.9c0-3.04-0.48-5.25-1.45-6.61
			c-0.97-1.36-2.81-2.04-5.53-2.04c-3.47,0-6.12,1.59-7.95,4.78v40.44h-18.1v-58.12H437.32z"/>
		<path class="st1" d="M547.7,205.48c-0.64-1.18-1.22-2.92-1.72-5.21c-3.33,4.19-7.99,6.28-13.96,6.28
			c-5.48,0-10.13-1.66-13.96-4.97c-3.83-3.31-5.75-7.47-5.75-12.49c0-6.3,2.33-11.06,6.98-14.29c4.65-3.22,11.42-4.83,20.3-4.83
			h5.59v-3.08c0-5.36-2.31-8.04-6.93-8.04c-4.3,0-6.45,2.12-6.45,6.37h-18.1c0-5.61,2.39-10.18,7.17-13.68s10.88-5.26,18.29-5.26
			s13.27,1.81,17.56,5.42c4.3,3.62,6.5,8.58,6.61,14.88v25.73c0.07,5.34,0.89,9.42,2.47,12.25v0.91H547.7z M536.37,193.66
			c2.26,0,4.13-0.48,5.61-1.45c1.49-0.97,2.55-2.06,3.2-3.28v-9.29h-5.26c-6.3,0-9.45,2.83-9.45,8.49c0,1.65,0.55,2.98,1.67,4
			C533.23,193.15,534.65,193.66,536.37,193.66z"/>
		<path class="st1" d="M608.5,163.74l-5.96-0.43c-5.69,0-9.34,1.79-10.96,5.37v36.79h-18.1v-58.12h16.97l0.59,7.47
			c3.04-5.69,7.29-8.54,12.73-8.54c1.93,0,3.62,0.21,5.05,0.64L608.5,163.74z"/>
		<path class="st1" d="M638.36,183.83l-5.1,5.1v16.54h-18.1v-82.55h18.1v43.83l1.83-2.42l13.64-16.97h21.7l-20.36,23.9l21.7,34.21
			h-20.73L638.36,183.83z"/>
		<path class="st1" d="M701.9,206.55c-8.92,0-16.13-2.66-21.65-7.98c-5.51-5.32-8.27-12.24-8.27-20.76v-1.5
			c0-5.94,1.1-11.19,3.3-15.74c2.2-4.55,5.42-8.07,9.64-10.55c4.22-2.49,9.24-3.73,15.04-3.73c8.16,0,14.61,2.53,19.34,7.6
			c4.73,5.07,7.09,12.13,7.09,21.19v7.04h-35.99c0.64,3.26,2.06,5.82,4.24,7.68c2.18,1.86,5.01,2.79,8.49,2.79
			c5.73,0,10.21-2,13.43-6.02l8.27,9.78c-2.26,3.12-5.45,5.59-9.59,7.44C711.11,205.63,706.66,206.55,701.9,206.55z M699.86,160.25
			c-5.3,0-8.45,3.51-9.45,10.53h18.26v-1.4c0.07-2.9-0.66-5.15-2.2-6.74C704.93,161.05,702.73,160.25,699.86,160.25z"/>
		<path class="st1" d="M754.75,132.91v14.45h9.56v12.57h-9.56v26.59c0,2.18,0.39,3.71,1.18,4.57c0.79,0.86,2.34,1.29,4.67,1.29
			c1.79,0,3.29-0.11,4.51-0.32V205c-3.26,1.04-6.66,1.56-10.21,1.56c-6.23,0-10.83-1.47-13.8-4.4c-2.97-2.94-4.46-7.39-4.46-13.37
			v-28.84h-7.41v-12.57h7.41v-14.45H754.75z"/>
	</g>
</g>
</svg>
